# xmcd
# 
# Track frame offsets:
#     150
#     14588
#     34710
#     50793
#     67592
#     89571
#     101482
#     114432
#     128847
#     141949
#     157332
#     171874
#     189705
#     205222
#     219000
#     235939
#     248814
#     267828
#     281493
#     300462
#     313861
# 
# Disc length: 4435
# 
# Revision: 2
# Processed by: cddbd v1.5.2PL0 Copyright (c) Steve Scherf et al.
# Submitted via: BonkEnc v1.0.15
# 
DISCID=30115115
DTITLE=Various Artist - Best of the Green Mountain Blues
DYEAR=1996
DGENRE=Blues
TTITLE0=Every Time I Hear That Mellow Saxaphone by Big Jo Burrell and the Unknown Blues Band
TTITLE1=Man In The Middle by Blues for Breakfast
TTITLE2=Count on Me by The Disciples
TTITLE3=The Butterman Blues by The North End Rythm King
TTITLE4=Long time Ago by The Jalapeno Brothers
TTITLE5=Down the Rod by Derrick Semler
TTITLE6=I Love My T.V. by Blue Fox and The Rocking Daddys
TTITLE7=Woman Don't Say Nothing by Texas Twister
TTITLE8=You Bum Me Out by Bloozotomy
TTITLE9=You Can't Do Me by Christine Adler
TTITLE10=Jumbled Cluck by The Dogcatchers
TTITLE11=I Don't Like Workin' by East Coast Muscle
TTITLE12=Away From Here by Zoot Wilson and the Reputations
TTITLE13=Private Hell by Jenny Johnson
TTITLE14=I Wanna Go Back by The John Lackard Blues Band
TTITLE15=Tennessee Line by Buck and The Blackcats
TTITLE16=Rubber Room by Jo Leone's Chop Shop
TTITLE17=Birthday Blues by Mark Galbo
TTITLE18=20th Century Life by Steve Boothby
TTITLE19=Chicken Wings by The Blind Pig Blues Band
TTITLE20=You're History by The John Tower Group
EXTD=YEAR: 1996
EXTT0=
EXTT1=
EXTT2=
EXTT3=
EXTT4=
EXTT5=
EXTT6=
EXTT7=
EXTT8=
EXTT9=
EXTT10=
EXTT11=
EXTT12=
EXTT13=
EXTT14=
EXTT15=
EXTT16=
EXTT17=
EXTT18=
EXTT19=
EXTT20=
PLAYORDER=
